<svg width="30" height="32" viewBox="0 0 30 32" fill="none" xmlns="http://www.w3.org/2000/svg">
<path fill-rule="evenodd" clip-rule="evenodd" d="M6.4546 23.986C5.90435 23.2904 5.23591 21.8683 4.04628 20.142C3.37203 19.1655 1.69997 17.3268 1.20203 16.3929C0.769972 15.5675 0.816472 15.1975 0.91916 14.5135C1.10128 13.2968 2.34903 12.3493 3.6801 12.4772C4.68566 12.5721 5.53816 13.2367 6.30541 13.8645C6.76847 14.2423 7.3381 14.9766 7.68103 15.3912C7.99685 15.771 8.07435 15.9279 8.41147 16.3774C8.8571 16.9722 8.9966 17.2667 8.8261 16.6118C8.68853 15.6508 8.46378 14.0098 8.13828 12.5586C7.89028 11.4581 7.83022 11.2856 7.59385 10.4409C7.34391 9.5419 7.21603 8.91221 6.9816 7.95896C6.81885 7.28471 6.52628 5.90715 6.44685 5.13215C6.33641 4.07233 6.27828 2.34408 6.95835 1.54971C7.49116 0.927772 8.71372 0.739835 9.47128 1.12346C10.4633 1.62527 11.0271 3.06677 11.2848 3.64221C11.7478 4.67683 12.0346 5.87227 12.2845 7.44165C12.6023 9.43921 13.1874 12.2118 13.2068 12.795C13.2533 12.08 13.075 10.5746 13.199 9.88871C13.3114 9.26677 13.8345 8.54408 14.4894 8.3484C15.0435 8.18371 15.6926 8.12365 16.2642 8.24183C16.8706 8.36583 17.51 8.79984 17.7483 9.20865C18.4497 10.4176 18.4632 12.888 18.4923 12.7562C18.6589 12.0277 18.6298 10.375 19.0425 9.68721C19.3138 9.23383 20.0055 8.82502 20.3736 8.75915C20.9432 8.6584 21.6427 8.6274 22.2413 8.74365C22.7238 8.83858 23.3767 9.41208 23.553 9.68721C23.9754 10.3537 24.2157 12.2389 24.2873 12.8996C24.3164 13.1728 24.4307 12.1401 24.855 11.4736C25.6417 10.2355 28.4258 9.99527 28.5324 12.7116C28.5808 13.9788 28.5712 13.9206 28.5712 14.7731C28.5712 15.7748 28.5479 16.3774 28.4937 17.102C28.4336 17.877 28.267 19.6285 28.0248 20.4771C27.8582 21.0603 27.306 22.372 26.7615 23.1586C26.7615 23.1586 24.6807 25.5805 24.454 26.6713C24.2253 27.7602 24.3009 27.768 24.2563 28.541C24.2118 29.3121 24.4908 30.3274 24.4908 30.3274C24.4908 30.3274 22.9369 30.5289 22.0999 30.3952C21.3423 30.2731 20.4046 28.7658 20.1624 28.3046C19.8292 27.6691 19.1181 27.7912 18.841 28.2601C18.4051 29.0021 17.4673 30.3332 16.8047 30.4165C15.5105 30.5793 12.8251 30.4766 10.7229 30.4553C10.7229 30.4553 11.0813 28.4965 10.2831 27.8241C9.69216 27.3223 8.67497 26.3051 8.0666 25.7704L6.4546 23.986Z" fill="white"/>
<path fill-rule="evenodd" clip-rule="evenodd" d="M6.4546 23.986C5.90435 23.2904 5.23591 21.8683 4.04628 20.142C3.37203 19.1655 1.69997 17.3268 1.20203 16.3929C0.769972 15.5675 0.816472 15.1975 0.91916 14.5135C1.10128 13.2968 2.34903 12.3493 3.6801 12.4772C4.68566 12.5721 5.53816 13.2367 6.30541 13.8645C6.76847 14.2423 7.3381 14.9766 7.68103 15.3912C7.99685 15.771 8.07435 15.9279 8.41147 16.3774C8.8571 16.9722 8.9966 17.2667 8.8261 16.6118C8.68853 15.6508 8.46378 14.0098 8.13828 12.5586C7.89028 11.4581 7.83022 11.2856 7.59385 10.4409C7.34391 9.5419 7.21603 8.91221 6.9816 7.95896C6.81885 7.28471 6.52628 5.90715 6.44685 5.13215C6.33641 4.07233 6.27828 2.34408 6.95835 1.54971C7.49116 0.927772 8.71372 0.739835 9.47128 1.12346C10.4633 1.62527 11.0271 3.06677 11.2848 3.64221C11.7478 4.67683 12.0346 5.87227 12.2845 7.44165C12.6023 9.43921 13.1874 12.2118 13.2068 12.795C13.2533 12.08 13.075 10.5746 13.199 9.88871C13.3114 9.26677 13.8345 8.54408 14.4894 8.3484C15.0435 8.18371 15.6926 8.12365 16.2642 8.24183C16.8706 8.36583 17.51 8.79983 17.7483 9.20865C18.4497 10.4176 18.4632 12.888 18.4923 12.7562C18.6589 12.0277 18.6298 10.375 19.0425 9.68721C19.3138 9.23383 20.0055 8.82502 20.3736 8.75915C20.9432 8.6584 21.6427 8.6274 22.2413 8.74365C22.7238 8.83858 23.3767 9.41208 23.553 9.68721C23.9754 10.3537 24.2157 12.2389 24.2873 12.8996C24.3164 13.1728 24.4307 12.1401 24.855 11.4736C25.6417 10.2355 28.4258 9.99527 28.5324 12.7116C28.5808 13.9788 28.5712 13.9206 28.5712 14.7731C28.5712 15.7748 28.5479 16.3774 28.4937 17.102C28.4336 17.877 28.267 19.6285 28.0248 20.4771C27.8582 21.0603 27.306 22.372 26.7615 23.1586C26.7615 23.1586 24.6807 25.5805 24.454 26.6713C24.2253 27.7602 24.3009 27.768 24.2563 28.541C24.2118 29.3121 24.4908 30.3274 24.4908 30.3274C24.4908 30.3274 22.9369 30.5289 22.0999 30.3952C21.3423 30.2731 20.4046 28.7658 20.1624 28.3046C19.8292 27.6691 19.1181 27.7912 18.841 28.2601C18.4051 29.0021 17.4673 30.3332 16.8047 30.4165C15.5105 30.5793 12.8251 30.4766 10.7229 30.4553C10.7229 30.4553 11.0813 28.4965 10.2831 27.8241C9.69216 27.3223 8.67497 26.3051 8.0666 25.7704L6.4546 23.986Z" stroke="black" stroke-width="1.45312" stroke-linecap="round" stroke-linejoin="round"/>
<path d="M22.4102 24.6728V17.9709" stroke="black" stroke-width="1.45312" stroke-linecap="round"/>
<path d="M18.5056 24.6955L18.4746 17.9666" stroke="black" stroke-width="1.45312" stroke-linecap="round"/>
<path d="M14.6367 18.0278L14.6774 24.6657" stroke="black" stroke-width="1.45312" stroke-linecap="round"/>
</svg>
